:SAMPLES-PER-SECOND 30
:FULLY-SPECIFIED
:DEGREES
111
root  -67.2227 39.7189 10.1333 178.267 -54.7173 178.007
RightUpLeg  -14.7537 6.51821 -6.35939
RightLeg  20.1492 7.53127 2.76286
RightFoot  -2.16652 -0.237193 2.7621
RightToes  -5.8209e-011 0 -3.6325e-017
Spine  15.8056 -0.276572 7.93003
Spine1  12.247 3.52359 -9.33583
HEad  -18.7671 -22.0946 12.7743
LeftShoulder1  0.564972 1.734 -25.707
LeftArm  -23.6356 -7.04386 -32.0675
LeftForeArm  22.9107 -74.325 -44.1933
LeftHand  -0.0782152 0.734435 1.86003
RightShoulder  0.209282 -2.71201 21.0425
RightArm  -4.25787 29.9002 52.5005
RightForeArm  -7.55698 61.9251 22.6189
RightHand  -0.0596672 4.13582 -1.00644
LeftUpLeg  -12.856 -15.2686 7.14573
LeftLeg  18.4229 -12.4846 -4.3105
LeftFoot  -5.94725 0.172625 -2.90202
LeftToes  -8.31281e-010 4.41007e-011 3.74621e-011
112
root  -67.8275 39.8742 10.5984 178.417 -48.9571 177.806
RightUpLeg  -14.2813 9.14658 -6.9448
RightLeg  17.6185 10.5503 2.90936
RightFoot  -1.3519 -0.330101 3.66895
RightToes  -5.8209e-011 0 -3.6325e-017
Spine  14.9574 0.0914467 6.38888
Spine1  12.1247 3.77731 -9.69968
HEad  -18.0876 -21.5358 12.9978
LeftShoulder1  0.422195 2.22245 -26.8495
LeftArm  -24.0296 -1.64051 -31.4526
LeftForeArm  35.9769 -76.9603 -57.8213
LeftHand  -0.041686 0.730141 0.947788
RightShoulder  0.0665981 -3.25068 22.4996
RightArm  -3.31145 24.4844 52.176
RightForeArm  -4.19721 65.5568 26.7633
RightHand  -0.112238 4.07458 -1.63997
LeftUpLeg  -10.949 -11.1928 5.75645
LeftLeg  17.8111 -10.537 -3.32396
LeftFoot  -6.1017 0.123236 -1.88908
LeftToes  -8.31281e-010 4.41007e-011 3.74621e-011
113
root  -68.3811 40.0188 10.9935 178.85 -42.3287 177.827
RightUpLeg  -14.45 9.9047 -6.68733
RightLeg  15.0346 14.2372 2.2781
RightFoot  -0.420122 -0.397144 4.12486
RightToes  -5.8209e-011 0 -3.6325e-017
Spine  13.3133 0.853806 4.31924
Spine1  12.2921 4.07093 -8.97248
HEad  -17.4585 -22.4892 12.4596
LeftShoulder1  0.190665 2.94945 -28.1291
LeftArm  -23.8263 3.25407 -31.0724
LeftForeArm  51.5469 -78.4931 -73.723
LeftHand  -0.0546438 0.354575 1.2292
RightShoulder  0.0800091 -3.20093 22.5186
RightArm  -3.49132 18.3901 52.3086
RightForeArm  0.74443 68.8847 31.8939
RightHand  -0.157103 4.04386 -2.18312
LeftUpLeg  -9.6237 -4.48093 4.92657
LeftLeg  17.2791 -10.4959 -2.94037
LeftFoot  -6.24799 0.0773948 -0.893975
LeftToes  -8.31281e-010 4.41007e-011 3.74621e-011
114
root  -68.9156 40.1355 11.4209 179.078 -36.1612 177.718
RightUpLeg  -14.5583 6.08672 -6.30666
RightLeg  13.2903 13.9709 1.28142
RightFoot  0.0985944 -0.43706 4.38515
RightToes  -5.8209e-011 0 -3.6325e-017
Spine  12.4854 0.985946 4.08436
Spine1  11.9478 4.55703 -10.4603
HEad  -17.7204 -23.5254 12.9197
LeftShoulder1  0.114998 3.16233 -27.8765
LeftArm  -22.9915 6.79252 -30.9021
LeftForeArm  62.0258 -78.8518 -84.2358
LeftHand  -0.0432805 0.330501 0.963703
RightShoulder  -0.173903 -4.01997 24.7952
RightArm  -4.48358 12.9627 51.175
RightForeArm  8.97175 71.7561 37.7083
RightHand  -0.0653456 2.69683 -1.16272
LeftUpLeg  -8.36986 0.789853 4.04315
LeftLeg  16.6655 -9.53112 -2.35799
LeftFoot  -6.32551 0.0612348 -0.56813
LeftToes  -8.31281e-010 4.41007e-011 3.74621e-011
115
root  -69.3869 40.2405 11.7604 178.837 -30.0492 177.619
RightUpLeg  -14.1181 -0.619192 -5.56562
RightLeg  12.0171 7.39077 0.270788
RightFoot  -0.805654 -0.459046 4.9131
RightToes  -5.8209e-011 0 -3.6325e-017
Spine  12.0376 1.11955 3.38487
Spine1  11.3751 4.8038 -11.325
HEad  -17.9685 -24.7905 13.209
LeftShoulder1  0.176962 2.95777 -26.685
LeftArm  -22.6036 11.5427 -32.3221
LeftForeArm  77.5083 -78.8369 -98.8508
LeftHand  -0.0639402 0.507818 1.39033
RightShoulder  -0.387333 -4.61818 27.7076
RightArm  -4.68425 8.18721 48.3366
RightForeArm  15.9463 73.8867 44.1104
RightHand  -0.0413409 3.01977 -0.800764
LeftUpLeg  -6.58437 4.3998 3.35618
LeftLeg  15.6253 -7.10774 -1.44897
LeftFoot  -6.42882 0.0474843 -0.302714
LeftToes  -8.31281e-010 4.41007e-011 3.74621e-011
116
root  -69.8932 40.3827 12.0464 178.859 -23.963 177.538
RightUpLeg  -13.7059 -8.2689 -4.98284
RightLeg  10.9403 2.32436 0.519344
RightFoot  -0.777889 -0.298378 3.1651
RightToes  -5.8209e-011 0 -3.6325e-017
Spine  10.6936 1.45553 1.98993
Spine1  11.7099 4.34165 -8.96093
HEad  -18.2523 -24.8764 11.3027
LeftShoulder1  -0.00824457 3.53095 -29.3048
LeftArm  -21.3942 13.374 -31.361
LeftForeArm  86.4704 -78.583 -106.26
LeftHand  0.0336485 0.796753 -0.94272
RightShoulder  -0.164713 -3.99148 25.8946
RightArm  -6.18038 2.6742 47.9648
RightForeArm  23.6671 75.6411 51.4735
RightHand  -0.0489641 3.24748 -0.895889
LeftUpLeg  -4.83496 6.89788 2.86874
LeftLeg  13.9232 -3.72914 -0.765419
LeftFoot  -6.23242 0.0692767 -0.600832
LeftToes  -8.31281e-010 4.41007e-011 3.74621e-011
117
root  -70.3103 40.4566 12.2772 178.912 -18.3287 177.353
RightUpLeg  -13.1471 -13.598 -4.98698
RightLeg  10.4335 -4.02095 0.940846
RightFoot  -1.2771 -0.184124 2.00093
RightToes  -5.8209e-011 0 -3.6325e-017
Spine  9.57678 1.33039 1.74286
Spine1  11.8945 4.14013 -8.83528
HEad  -19.275 -23.831 11.7994
LeftShoulder1  0.00359222 3.49362 -29.4774
LeftArm  -19.5741 14.5544 -31.1033
LeftForeArm  89.3488 -78.3471 -109.596
LeftHand  0.0066654 0.620529 -0.244109
RightShoulder  -0.291462 -4.36569 26.571
RightArm  -6.48235 -0.31416 46.1558
RightForeArm  28.8507 76.621 57.8482
RightHand  -0.142909 2.66476 -2.25251
LeftUpLeg  -3.48242 9.20081 2.67285
LeftLeg  12.7773 -0.40887 -0.927671
LeftFoot  -6.32519 0.0464525 -0.223141
LeftToes  -8.31281e-010 4.41007e-011 3.74621e-011
118
root  -70.6627 40.5361 12.4262 178.536 -12.6968 177.281
RightUpLeg  -12.3727 -18.9283 -4.48255
RightLeg  10.8506 -10.6557 0.856462
RightFoot  -2.2589 -0.0758961 0.729686
RightToes  -5.8209e-011 0 -3.6325e-017
Spine  8.95035 1.14834 1.26676
Spine1  11.9522 3.69976 -8.17297
HEad  -20.4646 -21.8427 12.9613
LeftShoulder1  -0.0615478 3.67673 -29.4711
LeftArm  -17.8427 15.3895 -31.8638
LeftForeArm  92.5587 -78.2378 -111.716
LeftHand  -0.00252537 0.524988 -0.0119362
RightShoulder  -0.36729 -4.58342 26.9723
RightArm  -7.39571 -3.69123 44.7592
RightForeArm  38.88 77.7394 67.308
RightHand  -0.07769 1.87846 -1.41515
LeftUpLeg  -1.7597 9.66121 2.39146
LeftLeg  11.5651 4.78593 -0.47094
LeftFoot  -6.32457 0.0571193 -0.389902
LeftToes  -8.31281e-010 4.41007e-011 3.74621e-011
